<?xml version="1.0" encoding="UTF-8"?>
<!-- Do not edit this file with editors other than draw.io -->
<!DOCTYPE svg PUBLIC "-//W3C//DTD SVG 1.1//EN" "http://www.w3.org/Graphics/SVG/1.1/DTD/svg11.dtd">
<svg xmlns="http://www.w3.org/2000/svg" style="background: transparent; background-color: transparent; color-scheme: light dark;" xmlns:xlink="http://www.w3.org/1999/xlink" version="1.1" width="391px" height="391px" viewBox="0 0 391 391" content="&lt;mxfile host=&quot;app.diagrams.net&quot; scale=&quot;1&quot; border=&quot;40&quot;&gt;&#xA;  &lt;diagram name=&quot;Página-1&quot; id=&quot;m5sHcWR_2rkEU-B8t9WB&quot;&gt;&#xA;    &lt;mxGraphModel dx=&quot;1348&quot; dy=&quot;795&quot; grid=&quot;1&quot; gridSize=&quot;10&quot; guides=&quot;1&quot; tooltips=&quot;1&quot; connect=&quot;1&quot; arrows=&quot;1&quot; fold=&quot;1&quot; page=&quot;1&quot; pageScale=&quot;1&quot; pageWidth=&quot;827&quot; pageHeight=&quot;1169&quot; math=&quot;0&quot; shadow=&quot;0&quot;&gt;&#xA;      &lt;root&gt;&#xA;        &lt;mxCell id=&quot;0&quot; /&gt;&#xA;        &lt;mxCell id=&quot;1&quot; parent=&quot;0&quot; /&gt;&#xA;        &lt;mxCell id=&quot;2&quot; parent=&quot;1&quot; style=&quot;shape=cylinder3;whiteSpace=wrap;html=1;boundedLbl=1;backgroundOutline=1;size=55;strokeWidth=11;fillColor=#212121;strokeColor=#FFFFFF;&quot; value=&quot;&quot; vertex=&quot;1&quot;&gt;&#xA;          &lt;mxGeometry height=&quot;160&quot; width=&quot;300&quot; x=&quot;60&quot; y=&quot;190&quot; as=&quot;geometry&quot; /&gt;&#xA;        &lt;/mxCell&gt;&#xA;        &lt;mxCell id=&quot;3&quot; parent=&quot;1&quot; style=&quot;shape=cylinder3;whiteSpace=wrap;html=1;boundedLbl=1;backgroundOutline=1;size=55;strokeWidth=11;fillColor=#212121;strokeColor=#FFFFFF;&quot; value=&quot;&quot; vertex=&quot;1&quot;&gt;&#xA;          &lt;mxGeometry height=&quot;160&quot; width=&quot;300&quot; x=&quot;60&quot; y=&quot;120&quot; as=&quot;geometry&quot; /&gt;&#xA;        &lt;/mxCell&gt;&#xA;        &lt;mxCell id=&quot;4&quot; parent=&quot;1&quot; style=&quot;shape=cylinder3;whiteSpace=wrap;html=1;boundedLbl=1;backgroundOutline=1;size=55;strokeWidth=11;fillColor=#212121;strokeColor=#FFFFFF;&quot; value=&quot;&quot; vertex=&quot;1&quot;&gt;&#xA;          &lt;mxGeometry height=&quot;160&quot; width=&quot;300&quot; x=&quot;60&quot; y=&quot;50&quot; as=&quot;geometry&quot; /&gt;&#xA;        &lt;/mxCell&gt;&#xA;      &lt;/root&gt;&#xA;    &lt;/mxGraphModel&gt;&#xA;  &lt;/diagram&gt;&#xA;&lt;/mxfile&gt;&#xA;"><defs/><g><g data-cell-id="0"><g data-cell-id="1"><g data-cell-id="vnlRNt5UzZaNdbj1r1kM-1"><g transform="translate(0.5,0.5)"><path d="M 45 240 C 45 209.62 112.16 185 195 185 C 277.84 185 345 209.62 345 240 L 345 290 C 345 320.38 277.84 345 195 345 C 112.16 345 45 320.38 45 290 Z" fill="#212121" style="fill: light-dark(rgb(33, 33, 33), rgb(209, 209, 209)); stroke: light-dark(rgb(255, 255, 255), rgb(18, 18, 18));" stroke="#ffffff" stroke-width="11" stroke-miterlimit="10" pointer-events="all"/><path d="M 345 240 C 345 270.38 277.84 295 195 295 C 112.16 295 45 270.38 45 240" fill="none" stroke="#ffffff" style="stroke: light-dark(rgb(255, 255, 255), rgb(18, 18, 18));" stroke-width="11" stroke-miterlimit="10" pointer-events="all"/></g></g><g data-cell-id="vnlRNt5UzZaNdbj1r1kM-2"><g transform="translate(0.5,0.5)"><path d="M 45 170 C 45 139.62 112.16 115 195 115 C 277.84 115 345 139.62 345 170 L 345 220 C 345 250.38 277.84 275 195 275 C 112.16 275 45 250.38 45 220 Z" fill="#212121" style="fill: light-dark(rgb(33, 33, 33), rgb(209, 209, 209)); stroke: light-dark(rgb(255, 255, 255), rgb(18, 18, 18));" stroke="#ffffff" stroke-width="11" stroke-miterlimit="10" pointer-events="all"/><path d="M 345 170 C 345 200.38 277.84 225 195 225 C 112.16 225 45 200.38 45 170" fill="none" stroke="#ffffff" style="stroke: light-dark(rgb(255, 255, 255), rgb(18, 18, 18));" stroke-width="11" stroke-miterlimit="10" pointer-events="all"/></g></g><g data-cell-id="vnlRNt5UzZaNdbj1r1kM-3"><g transform="translate(0.5,0.5)"><path d="M 45 100 C 45 69.62 112.16 45 195 45 C 277.84 45 345 69.62 345 100 L 345 150 C 345 180.38 277.84 205 195 205 C 112.16 205 45 180.38 45 150 Z" fill="#212121" style="fill: light-dark(rgb(33, 33, 33), rgb(209, 209, 209)); stroke: light-dark(rgb(255, 255, 255), rgb(18, 18, 18));" stroke="#ffffff" stroke-width="11" stroke-miterlimit="10" pointer-events="all"/><path d="M 345 100 C 345 130.38 277.84 155 195 155 C 112.16 155 45 130.38 45 100" fill="none" stroke="#ffffff" style="stroke: light-dark(rgb(255, 255, 255), rgb(18, 18, 18));" stroke-width="11" stroke-miterlimit="10" pointer-events="all"/></g></g></g></g></g></svg>